<?xml version="1.0" encoding="UTF-8" standalone="no"?>
<!DOCTYPE svg PUBLIC "-//W3C//DTD SVG 1.1//EN"
 "http://www.w3.org/Graphics/SVG/1.1/DTD/svg11.dtd">
<!-- Generated by graphviz version 2.44.0 (0)
 -->
<!-- Pages: 1 -->
<svg width="1264pt" height="620pt"
 viewBox="0.00 0.00 1263.96 620.00" xmlns="http://www.w3.org/2000/svg" xmlns:xlink="http://www.w3.org/1999/xlink">
<g id="graph0" class="graph" transform="scale(1 1) rotate(0) translate(4 616)">
<polygon fill="white" stroke="transparent" points="-4,4 -4,-616 1259.96,-616 1259.96,4 -4,4"/>
<!-- [root] aws_eip.eip&#45;obli (expand) -->
<g id="node1" class="node">
<title>[root] aws_eip.eip&#45;obli (expand)</title>
<polygon fill="none" stroke="black" points="691.46,-108 564.46,-108 564.46,-72 691.46,-72 691.46,-108"/>
<text text-anchor="middle" x="627.96" y="-86.3" font-family="Times-Roman" font-size="14.00">aws_eip.eip&#45;obli</text>
</g>
<!-- [root] provider[&quot;registry.terraform.io/hashicorp/aws&quot;] -->
<g id="node14" class="node">
<title>[root] provider[&quot;registry.terraform.io/hashicorp/aws&quot;]</title>
<polygon fill="none" stroke="black" points="627.96,-36 315.44,-18 627.96,0 940.49,-18 627.96,-36"/>
<text text-anchor="middle" x="627.96" y="-14.3" font-family="Times-Roman" font-size="14.00">provider[&quot;registry.terraform.io/hashicorp/aws&quot;]</text>
</g>
<!-- [root] aws_eip.eip&#45;obli (expand)&#45;&gt;[root] provider[&quot;registry.terraform.io/hashicorp/aws&quot;] -->
<g id="edge1" class="edge">
<title>[root] aws_eip.eip&#45;obli (expand)&#45;&gt;[root] provider[&quot;registry.terraform.io/hashicorp/aws&quot;]</title>
<path fill="none" stroke="black" d="M627.96,-71.7C627.96,-63.98 627.96,-54.71 627.96,-46.11"/>
<polygon fill="black" stroke="black" points="631.46,-46.1 627.96,-36.1 624.46,-46.1 631.46,-46.1"/>
</g>
<!-- [root] aws_eks_cluster.cluster (expand) -->
<g id="node2" class="node">
<title>[root] aws_eks_cluster.cluster (expand)</title>
<polygon fill="none" stroke="black" points="206.46,-396 27.46,-396 27.46,-360 206.46,-360 206.46,-396"/>
<text text-anchor="middle" x="116.96" y="-374.3" font-family="Times-Roman" font-size="14.00">aws_eks_cluster.cluster</text>
</g>
<!-- [root] aws_subnet.subnet&#45;1 (expand) -->
<g id="node11" class="node">
<title>[root] aws_subnet.subnet&#45;1 (expand)</title>
<polygon fill="none" stroke="black" points="585.46,-180 420.46,-180 420.46,-144 585.46,-144 585.46,-180"/>
<text text-anchor="middle" x="502.96" y="-158.3" font-family="Times-Roman" font-size="14.00">aws_subnet.subnet&#45;1</text>
</g>
<!-- [root] aws_eks_cluster.cluster (expand)&#45;&gt;[root] aws_subnet.subnet&#45;1 (expand) -->
<g id="edge2" class="edge">
<title>[root] aws_eks_cluster.cluster (expand)&#45;&gt;[root] aws_subnet.subnet&#45;1 (expand)</title>
<path fill="none" stroke="black" d="M52.14,-359.95C34.46,-352 17.34,-340.51 6.96,-324 -1.55,-310.45 -2.87,-300.62 6.96,-288 55.99,-225.09 280.43,-188.92 409.97,-172.94"/>
<polygon fill="black" stroke="black" points="410.78,-176.37 420.28,-171.68 409.94,-169.42 410.78,-176.37"/>
</g>
<!-- [root] aws_subnet.subnet&#45;2 (expand) -->
<g id="node12" class="node">
<title>[root] aws_subnet.subnet&#45;2 (expand)</title>
<polygon fill="none" stroke="black" points="449.46,-324 284.46,-324 284.46,-288 449.46,-288 449.46,-324"/>
<text text-anchor="middle" x="366.96" y="-302.3" font-family="Times-Roman" font-size="14.00">aws_subnet.subnet&#45;2</text>
</g>
<!-- [root] aws_eks_cluster.cluster (expand)&#45;&gt;[root] aws_subnet.subnet&#45;2 (expand) -->
<g id="edge3" class="edge">
<title>[root] aws_eks_cluster.cluster (expand)&#45;&gt;[root] aws_subnet.subnet&#45;2 (expand)</title>
<path fill="none" stroke="black" d="M177.8,-359.97C213.49,-349.97 258.75,-337.3 296.06,-326.85"/>
<polygon fill="black" stroke="black" points="297.17,-330.18 305.85,-324.11 295.28,-323.44 297.17,-330.18"/>
</g>
<!-- [root] var.arn_role -->
<g id="node16" class="node">
<title>[root] var.arn_role</title>
<polygon fill="none" stroke="black" points="107.46,-324 16.46,-324 16.46,-288 113.46,-288 113.46,-318 107.46,-324"/>
<polyline fill="none" stroke="black" points="107.46,-324 107.46,-318 "/>
<polyline fill="none" stroke="black" points="113.46,-318 107.46,-318 "/>
<text text-anchor="middle" x="64.96" y="-302.3" font-family="Times-Roman" font-size="14.00">var.arn_role</text>
</g>
<!-- [root] aws_eks_cluster.cluster (expand)&#45;&gt;[root] var.arn_role -->
<g id="edge4" class="edge">
<title>[root] aws_eks_cluster.cluster (expand)&#45;&gt;[root] var.arn_role</title>
<path fill="none" stroke="black" d="M104.11,-359.7C97.94,-351.39 90.43,-341.28 83.64,-332.14"/>
<polygon fill="black" stroke="black" points="86.44,-330.04 77.67,-324.1 80.82,-334.22 86.44,-330.04"/>
</g>
<!-- [root] var.cluster_name -->
<g id="node21" class="node">
<title>[root] var.cluster_name</title>
<polygon fill="none" stroke="black" points="260.46,-324 131.46,-324 131.46,-288 266.46,-288 266.46,-318 260.46,-324"/>
<polyline fill="none" stroke="black" points="260.46,-324 260.46,-318 "/>
<polyline fill="none" stroke="black" points="266.46,-318 260.46,-318 "/>
<text text-anchor="middle" x="198.96" y="-302.3" font-family="Times-Roman" font-size="14.00">var.cluster_name</text>
</g>
<!-- [root] aws_eks_cluster.cluster (expand)&#45;&gt;[root] var.cluster_name -->
<g id="edge5" class="edge">
<title>[root] aws_eks_cluster.cluster (expand)&#45;&gt;[root] var.cluster_name</title>
<path fill="none" stroke="black" d="M137.23,-359.7C147.46,-350.97 160.02,-340.24 171.14,-330.75"/>
<polygon fill="black" stroke="black" points="173.59,-333.26 178.93,-324.1 169.05,-327.94 173.59,-333.26"/>
</g>
<!-- [root] aws_eks_node_group.workers (expand) -->
<g id="node3" class="node">
<title>[root] aws_eks_node_group.workers (expand)</title>
<polygon fill="none" stroke="black" points="752.96,-468 530.96,-468 530.96,-432 752.96,-432 752.96,-468"/>
<text text-anchor="middle" x="641.96" y="-446.3" font-family="Times-Roman" font-size="14.00">aws_eks_node_group.workers</text>
</g>
<!-- [root] aws_eks_node_group.workers (expand)&#45;&gt;[root] aws_eks_cluster.cluster (expand) -->
<g id="edge6" class="edge">
<title>[root] aws_eks_node_group.workers (expand)&#45;&gt;[root] aws_eks_cluster.cluster (expand)</title>
<path fill="none" stroke="black" d="M530.55,-436.57C447.01,-426.91 329.61,-412.63 216.72,-396.07"/>
<polygon fill="black" stroke="black" points="216.91,-392.56 206.51,-394.57 215.89,-399.49 216.91,-392.56"/>
</g>
<!-- [root] aws_route_table_association.nat&#45;associate (expand) -->
<g id="node9" class="node">
<title>[root] aws_route_table_association.nat&#45;associate (expand)</title>
<polygon fill="none" stroke="black" points="532.96,-396 224.96,-396 224.96,-360 532.96,-360 532.96,-396"/>
<text text-anchor="middle" x="378.96" y="-374.3" font-family="Times-Roman" font-size="14.00">aws_route_table_association.nat&#45;associate</text>
</g>
<!-- [root] aws_eks_node_group.workers (expand)&#45;&gt;[root] aws_route_table_association.nat&#45;associate (expand) -->
<g id="edge7" class="edge">
<title>[root] aws_eks_node_group.workers (expand)&#45;&gt;[root] aws_route_table_association.nat&#45;associate (expand)</title>
<path fill="none" stroke="black" d="M577.96,-431.97C540.26,-421.93 492.39,-409.19 453.06,-398.72"/>
<polygon fill="black" stroke="black" points="453.81,-395.3 443.25,-396.11 452.01,-402.07 453.81,-395.3"/>
</g>
<!-- [root] var.ami -->
<g id="node15" class="node">
<title>[root] var.ami</title>
<polygon fill="none" stroke="black" points="612.96,-396 550.96,-396 550.96,-360 618.96,-360 618.96,-390 612.96,-396"/>
<polyline fill="none" stroke="black" points="612.96,-396 612.96,-390 "/>
<polyline fill="none" stroke="black" points="618.96,-390 612.96,-390 "/>
<text text-anchor="middle" x="584.96" y="-374.3" font-family="Times-Roman" font-size="14.00">var.ami</text>
</g>
<!-- [root] aws_eks_node_group.workers (expand)&#45;&gt;[root] var.ami -->
<g id="edge8" class="edge">
<title>[root] aws_eks_node_group.workers (expand)&#45;&gt;[root] var.ami</title>
<path fill="none" stroke="black" d="M627.87,-431.7C621.04,-423.3 612.71,-413.07 605.21,-403.86"/>
<polygon fill="black" stroke="black" points="607.92,-401.65 598.89,-396.1 602.49,-406.07 607.92,-401.65"/>
</g>
<!-- [root] var.worker&#45;type -->
<g id="node23" class="node">
<title>[root] var.worker&#45;type</title>
<polygon fill="none" stroke="black" points="754.96,-396 636.96,-396 636.96,-360 760.96,-360 760.96,-390 754.96,-396"/>
<polyline fill="none" stroke="black" points="754.96,-396 754.96,-390 "/>
<polyline fill="none" stroke="black" points="760.96,-390 754.96,-390 "/>
<text text-anchor="middle" x="698.96" y="-374.3" font-family="Times-Roman" font-size="14.00">var.worker&#45;type</text>
</g>
<!-- [root] aws_eks_node_group.workers (expand)&#45;&gt;[root] var.worker&#45;type -->
<g id="edge9" class="edge">
<title>[root] aws_eks_node_group.workers (expand)&#45;&gt;[root] var.worker&#45;type</title>
<path fill="none" stroke="black" d="M656.05,-431.7C662.89,-423.3 671.22,-413.07 678.72,-403.86"/>
<polygon fill="black" stroke="black" points="681.43,-406.07 685.03,-396.1 676.01,-401.65 681.43,-406.07"/>
</g>
<!-- [root] var.workers&#45;name -->
<g id="node24" class="node">
<title>[root] var.workers&#45;name</title>
<polygon fill="none" stroke="black" points="914.46,-396 779.46,-396 779.46,-360 920.46,-360 920.46,-390 914.46,-396"/>
<polyline fill="none" stroke="black" points="914.46,-396 914.46,-390 "/>
<polyline fill="none" stroke="black" points="920.46,-390 914.46,-390 "/>
<text text-anchor="middle" x="849.96" y="-374.3" font-family="Times-Roman" font-size="14.00">var.workers&#45;name</text>
</g>
<!-- [root] aws_eks_node_group.workers (expand)&#45;&gt;[root] var.workers&#45;name -->
<g id="edge10" class="edge">
<title>[root] aws_eks_node_group.workers (expand)&#45;&gt;[root] var.workers&#45;name</title>
<path fill="none" stroke="black" d="M692.58,-431.97C721.77,-422.14 758.65,-409.73 789.38,-399.39"/>
<polygon fill="black" stroke="black" points="790.76,-402.62 799.12,-396.11 788.52,-395.98 790.76,-402.62"/>
</g>
<!-- [root] aws_internet_gateway.igw&#45;obli (expand) -->
<g id="node4" class="node">
<title>[root] aws_internet_gateway.igw&#45;obli (expand)</title>
<polygon fill="none" stroke="black" points="889.96,-180 663.96,-180 663.96,-144 889.96,-144 889.96,-180"/>
<text text-anchor="middle" x="776.96" y="-158.3" font-family="Times-Roman" font-size="14.00">aws_internet_gateway.igw&#45;obli</text>
</g>
<!-- [root] aws_vpc.vpc&#45;obli (expand) -->
<g id="node13" class="node">
<title>[root] aws_vpc.vpc&#45;obli (expand)</title>
<polygon fill="none" stroke="black" points="843.96,-108 709.96,-108 709.96,-72 843.96,-72 843.96,-108"/>
<text text-anchor="middle" x="776.96" y="-86.3" font-family="Times-Roman" font-size="14.00">aws_vpc.vpc&#45;obli</text>
</g>
<!-- [root] aws_internet_gateway.igw&#45;obli (expand)&#45;&gt;[root] aws_vpc.vpc&#45;obli (expand) -->
<g id="edge11" class="edge">
<title>[root] aws_internet_gateway.igw&#45;obli (expand)&#45;&gt;[root] aws_vpc.vpc&#45;obli (expand)</title>
<path fill="none" stroke="black" d="M776.96,-143.7C776.96,-135.98 776.96,-126.71 776.96,-118.11"/>
<polygon fill="black" stroke="black" points="780.46,-118.1 776.96,-108.1 773.46,-118.1 780.46,-118.1"/>
</g>
<!-- [root] aws_nat_gateway.nat&#45;obli (expand) -->
<g id="node5" class="node">
<title>[root] aws_nat_gateway.nat&#45;obli (expand)</title>
<polygon fill="none" stroke="black" points="724.46,-252 531.46,-252 531.46,-216 724.46,-216 724.46,-252"/>
<text text-anchor="middle" x="627.96" y="-230.3" font-family="Times-Roman" font-size="14.00">aws_nat_gateway.nat&#45;obli</text>
</g>
<!-- [root] aws_nat_gateway.nat&#45;obli (expand)&#45;&gt;[root] aws_eip.eip&#45;obli (expand) -->
<g id="edge12" class="edge">
<title>[root] aws_nat_gateway.nat&#45;obli (expand)&#45;&gt;[root] aws_eip.eip&#45;obli (expand)</title>
<path fill="none" stroke="black" d="M627.96,-215.87C627.96,-191.67 627.96,-147.21 627.96,-118.39"/>
<polygon fill="black" stroke="black" points="631.46,-118.19 627.96,-108.19 624.46,-118.19 631.46,-118.19"/>
</g>
<!-- [root] aws_nat_gateway.nat&#45;obli (expand)&#45;&gt;[root] aws_internet_gateway.igw&#45;obli (expand) -->
<g id="edge13" class="edge">
<title>[root] aws_nat_gateway.nat&#45;obli (expand)&#45;&gt;[root] aws_internet_gateway.igw&#45;obli (expand)</title>
<path fill="none" stroke="black" d="M664.41,-215.88C684.6,-206.39 709.88,-194.51 731.37,-184.42"/>
<polygon fill="black" stroke="black" points="733.07,-187.49 740.63,-180.07 730.09,-181.15 733.07,-187.49"/>
</g>
<!-- [root] aws_nat_gateway.nat&#45;obli (expand)&#45;&gt;[root] aws_subnet.subnet&#45;1 (expand) -->
<g id="edge14" class="edge">
<title>[root] aws_nat_gateway.nat&#45;obli (expand)&#45;&gt;[root] aws_subnet.subnet&#45;1 (expand)</title>
<path fill="none" stroke="black" d="M597.38,-215.88C580.89,-206.64 560.34,-195.13 542.63,-185.21"/>
<polygon fill="black" stroke="black" points="544.09,-182.02 533.66,-180.19 540.67,-188.13 544.09,-182.02"/>
</g>
<!-- [root] aws_route_table.nat&#45;table (expand) -->
<g id="node6" class="node">
<title>[root] aws_route_table.nat&#45;table (expand)</title>
<polygon fill="none" stroke="black" points="661.96,-324 467.96,-324 467.96,-288 661.96,-288 661.96,-324"/>
<text text-anchor="middle" x="564.96" y="-302.3" font-family="Times-Roman" font-size="14.00">aws_route_table.nat&#45;table</text>
</g>
<!-- [root] aws_route_table.nat&#45;table (expand)&#45;&gt;[root] aws_nat_gateway.nat&#45;obli (expand) -->
<g id="edge15" class="edge">
<title>[root] aws_route_table.nat&#45;table (expand)&#45;&gt;[root] aws_nat_gateway.nat&#45;obli (expand)</title>
<path fill="none" stroke="black" d="M580.54,-287.7C588.16,-279.22 597.49,-268.86 605.84,-259.58"/>
<polygon fill="black" stroke="black" points="608.48,-261.88 612.57,-252.1 603.28,-257.2 608.48,-261.88"/>
</g>
<!-- [root] aws_route_table.tabla&#45;obli (expand) -->
<g id="node7" class="node">
<title>[root] aws_route_table.tabla&#45;obli (expand)</title>
<polygon fill="none" stroke="black" points="939.46,-252 742.46,-252 742.46,-216 939.46,-216 939.46,-252"/>
<text text-anchor="middle" x="840.96" y="-230.3" font-family="Times-Roman" font-size="14.00">aws_route_table.tabla&#45;obli</text>
</g>
<!-- [root] aws_route_table.tabla&#45;obli (expand)&#45;&gt;[root] aws_internet_gateway.igw&#45;obli (expand) -->
<g id="edge16" class="edge">
<title>[root] aws_route_table.tabla&#45;obli (expand)&#45;&gt;[root] aws_internet_gateway.igw&#45;obli (expand)</title>
<path fill="none" stroke="black" d="M825.14,-215.7C817.39,-207.22 807.92,-196.86 799.44,-187.58"/>
<polygon fill="black" stroke="black" points="801.93,-185.12 792.6,-180.1 796.77,-189.85 801.93,-185.12"/>
</g>
<!-- [root] aws_route_table_association.asociacion&#45;ruta (expand) -->
<g id="node8" class="node">
<title>[root] aws_route_table_association.asociacion&#45;ruta (expand)</title>
<polygon fill="none" stroke="black" points="1001.96,-324 679.96,-324 679.96,-288 1001.96,-288 1001.96,-324"/>
<text text-anchor="middle" x="840.96" y="-302.3" font-family="Times-Roman" font-size="14.00">aws_route_table_association.asociacion&#45;ruta</text>
</g>
<!-- [root] aws_route_table_association.asociacion&#45;ruta (expand)&#45;&gt;[root] aws_route_table.tabla&#45;obli (expand) -->
<g id="edge17" class="edge">
<title>[root] aws_route_table_association.asociacion&#45;ruta (expand)&#45;&gt;[root] aws_route_table.tabla&#45;obli (expand)</title>
<path fill="none" stroke="black" d="M840.96,-287.7C840.96,-279.98 840.96,-270.71 840.96,-262.11"/>
<polygon fill="black" stroke="black" points="844.46,-262.1 840.96,-252.1 837.46,-262.1 844.46,-262.1"/>
</g>
<!-- [root] aws_route_table_association.asociacion&#45;ruta (expand)&#45;&gt;[root] aws_subnet.subnet&#45;1 (expand) -->
<g id="edge18" class="edge">
<title>[root] aws_route_table_association.asociacion&#45;ruta (expand)&#45;&gt;[root] aws_subnet.subnet&#45;1 (expand)</title>
<path fill="none" stroke="black" d="M693.51,-287.97C616.72,-277.76 536.08,-264.4 522.96,-252 506.38,-236.32 502.13,-210.09 501.58,-190.16"/>
<polygon fill="black" stroke="black" points="505.08,-190.13 501.59,-180.12 498.08,-190.12 505.08,-190.13"/>
</g>
<!-- [root] aws_route_table_association.nat&#45;associate (expand)&#45;&gt;[root] aws_route_table.nat&#45;table (expand) -->
<g id="edge19" class="edge">
<title>[root] aws_route_table_association.nat&#45;associate (expand)&#45;&gt;[root] aws_route_table.nat&#45;table (expand)</title>
<path fill="none" stroke="black" d="M424.46,-359.88C450.34,-350.14 482.93,-337.87 510.2,-327.61"/>
<polygon fill="black" stroke="black" points="511.48,-330.87 519.61,-324.07 509.02,-324.31 511.48,-330.87"/>
</g>
<!-- [root] aws_route_table_association.nat&#45;associate (expand)&#45;&gt;[root] aws_subnet.subnet&#45;2 (expand) -->
<g id="edge20" class="edge">
<title>[root] aws_route_table_association.nat&#45;associate (expand)&#45;&gt;[root] aws_subnet.subnet&#45;2 (expand)</title>
<path fill="none" stroke="black" d="M376,-359.7C374.67,-351.98 373.08,-342.71 371.61,-334.11"/>
<polygon fill="black" stroke="black" points="375.03,-333.37 369.89,-324.1 368.13,-334.55 375.03,-333.37"/>
</g>
<!-- [root] aws_security_group.sg&#45;obli (expand) -->
<g id="node10" class="node">
<title>[root] aws_security_group.sg&#45;obli (expand)</title>
<polygon fill="none" stroke="black" points="1204.96,-468 1000.96,-468 1000.96,-432 1204.96,-432 1204.96,-468"/>
<text text-anchor="middle" x="1102.96" y="-446.3" font-family="Times-Roman" font-size="14.00">aws_security_group.sg&#45;obli</text>
</g>
<!-- [root] aws_security_group.sg&#45;obli (expand)&#45;&gt;[root] aws_vpc.vpc&#45;obli (expand) -->
<g id="edge21" class="edge">
<title>[root] aws_security_group.sg&#45;obli (expand)&#45;&gt;[root] aws_vpc.vpc&#45;obli (expand)</title>
<path fill="none" stroke="black" d="M1080.14,-431.95C1069.1,-422.53 1056.62,-409.93 1048.96,-396 1029.48,-360.55 1029.96,-347.45 1029.96,-307 1029.96,-307 1029.96,-307 1029.96,-233 1029.96,-151.29 928.38,-116.12 853.95,-101.31"/>
<polygon fill="black" stroke="black" points="854.58,-97.87 844.1,-99.44 853.27,-104.75 854.58,-97.87"/>
</g>
<!-- [root] var.cidr&#45;global -->
<g id="node17" class="node">
<title>[root] var.cidr&#45;global</title>
<polygon fill="none" stroke="black" points="1165.96,-396 1057.96,-396 1057.96,-360 1171.96,-360 1171.96,-390 1165.96,-396"/>
<polyline fill="none" stroke="black" points="1165.96,-396 1165.96,-390 "/>
<polyline fill="none" stroke="black" points="1171.96,-390 1165.96,-390 "/>
<text text-anchor="middle" x="1114.96" y="-374.3" font-family="Times-Roman" font-size="14.00">var.cidr&#45;global</text>
</g>
<!-- [root] aws_security_group.sg&#45;obli (expand)&#45;&gt;[root] var.cidr&#45;global -->
<g id="edge22" class="edge">
<title>[root] aws_security_group.sg&#45;obli (expand)&#45;&gt;[root] var.cidr&#45;global</title>
<path fill="none" stroke="black" d="M1105.93,-431.7C1107.25,-423.98 1108.84,-414.71 1110.31,-406.11"/>
<polygon fill="black" stroke="black" points="1113.79,-406.55 1112.03,-396.1 1106.89,-405.37 1113.79,-406.55"/>
</g>
<!-- [root] var.ssh -->
<g id="node22" class="node">
<title>[root] var.ssh</title>
<polygon fill="none" stroke="black" points="1249.96,-396 1189.96,-396 1189.96,-360 1255.96,-360 1255.96,-390 1249.96,-396"/>
<polyline fill="none" stroke="black" points="1249.96,-396 1249.96,-390 "/>
<polyline fill="none" stroke="black" points="1255.96,-390 1249.96,-390 "/>
<text text-anchor="middle" x="1222.96" y="-374.3" font-family="Times-Roman" font-size="14.00">var.ssh</text>
</g>
<!-- [root] aws_security_group.sg&#45;obli (expand)&#45;&gt;[root] var.ssh -->
<g id="edge23" class="edge">
<title>[root] aws_security_group.sg&#45;obli (expand)&#45;&gt;[root] var.ssh</title>
<path fill="none" stroke="black" d="M1132.32,-431.88C1148.01,-422.72 1167.52,-411.34 1184.42,-401.48"/>
<polygon fill="black" stroke="black" points="1186.62,-404.25 1193.49,-396.19 1183.09,-398.21 1186.62,-404.25"/>
</g>
<!-- [root] aws_subnet.subnet&#45;1 (expand)&#45;&gt;[root] aws_vpc.vpc&#45;obli (expand) -->
<g id="edge24" class="edge">
<title>[root] aws_subnet.subnet&#45;1 (expand)&#45;&gt;[root] aws_vpc.vpc&#45;obli (expand)</title>
<path fill="none" stroke="black" d="M569.64,-143.97C609.09,-133.89 659.21,-121.08 700.29,-110.59"/>
<polygon fill="black" stroke="black" points="701.16,-113.98 709.99,-108.11 699.43,-107.2 701.16,-113.98"/>
</g>
<!-- [root] var.cidr&#45;subnet&#45;1 -->
<g id="node18" class="node">
<title>[root] var.cidr&#45;subnet&#45;1</title>
<polygon fill="none" stroke="black" points="539.96,-108 411.96,-108 411.96,-72 545.96,-72 545.96,-102 539.96,-108"/>
<polyline fill="none" stroke="black" points="539.96,-108 539.96,-102 "/>
<polyline fill="none" stroke="black" points="545.96,-102 539.96,-102 "/>
<text text-anchor="middle" x="478.96" y="-86.3" font-family="Times-Roman" font-size="14.00">var.cidr&#45;subnet&#45;1</text>
</g>
<!-- [root] aws_subnet.subnet&#45;1 (expand)&#45;&gt;[root] var.cidr&#45;subnet&#45;1 -->
<g id="edge25" class="edge">
<title>[root] aws_subnet.subnet&#45;1 (expand)&#45;&gt;[root] var.cidr&#45;subnet&#45;1</title>
<path fill="none" stroke="black" d="M497.03,-143.7C494.36,-135.9 491.14,-126.51 488.16,-117.83"/>
<polygon fill="black" stroke="black" points="491.38,-116.43 484.83,-108.1 484.76,-118.7 491.38,-116.43"/>
</g>
<!-- [root] aws_subnet.subnet&#45;2 (expand)&#45;&gt;[root] aws_vpc.vpc&#45;obli (expand) -->
<g id="edge26" class="edge">
<title>[root] aws_subnet.subnet&#45;2 (expand)&#45;&gt;[root] aws_vpc.vpc&#45;obli (expand)</title>
<path fill="none" stroke="black" d="M351.88,-287.77C338,-269.71 321.1,-240.6 331.96,-216 351.15,-172.54 367.81,-163.86 410.96,-144 525.95,-91.08 570.71,-128.21 699.64,-108.06"/>
<polygon fill="black" stroke="black" points="700.6,-111.45 709.9,-106.37 699.46,-104.55 700.6,-111.45"/>
</g>
<!-- [root] var.cidr&#45;subnet&#45;2 -->
<g id="node19" class="node">
<title>[root] var.cidr&#45;subnet&#45;2</title>
<polygon fill="none" stroke="black" points="468.96,-252 340.96,-252 340.96,-216 474.96,-216 474.96,-246 468.96,-252"/>
<polyline fill="none" stroke="black" points="468.96,-252 468.96,-246 "/>
<polyline fill="none" stroke="black" points="474.96,-246 468.96,-246 "/>
<text text-anchor="middle" x="407.96" y="-230.3" font-family="Times-Roman" font-size="14.00">var.cidr&#45;subnet&#45;2</text>
</g>
<!-- [root] aws_subnet.subnet&#45;2 (expand)&#45;&gt;[root] var.cidr&#45;subnet&#45;2 -->
<g id="edge27" class="edge">
<title>[root] aws_subnet.subnet&#45;2 (expand)&#45;&gt;[root] var.cidr&#45;subnet&#45;2</title>
<path fill="none" stroke="black" d="M377.1,-287.7C381.81,-279.64 387.52,-269.89 392.74,-260.98"/>
<polygon fill="black" stroke="black" points="395.91,-262.5 397.94,-252.1 389.87,-258.96 395.91,-262.5"/>
</g>
<!-- [root] aws_vpc.vpc&#45;obli (expand)&#45;&gt;[root] provider[&quot;registry.terraform.io/hashicorp/aws&quot;] -->
<g id="edge28" class="edge">
<title>[root] aws_vpc.vpc&#45;obli (expand)&#45;&gt;[root] provider[&quot;registry.terraform.io/hashicorp/aws&quot;]</title>
<path fill="none" stroke="black" d="M740.51,-71.88C719.1,-61.82 691.96,-49.07 669.7,-38.61"/>
<polygon fill="black" stroke="black" points="671.02,-35.36 660.49,-34.28 668.05,-41.7 671.02,-35.36"/>
</g>
<!-- [root] var.cidr&#45;vpc -->
<g id="node20" class="node">
<title>[root] var.cidr&#45;vpc</title>
<polygon fill="none" stroke="black" points="1048.96,-36 958.96,-36 958.96,0 1054.96,0 1054.96,-30 1048.96,-36"/>
<polyline fill="none" stroke="black" points="1048.96,-36 1048.96,-30 "/>
<polyline fill="none" stroke="black" points="1054.96,-30 1048.96,-30 "/>
<text text-anchor="middle" x="1006.96" y="-14.3" font-family="Times-Roman" font-size="14.00">var.cidr&#45;vpc</text>
</g>
<!-- [root] aws_vpc.vpc&#45;obli (expand)&#45;&gt;[root] var.cidr&#45;vpc -->
<g id="edge29" class="edge">
<title>[root] aws_vpc.vpc&#45;obli (expand)&#45;&gt;[root] var.cidr&#45;vpc</title>
<path fill="none" stroke="black" d="M832.93,-71.97C868.18,-61.24 913.58,-47.42 949.17,-36.59"/>
<polygon fill="black" stroke="black" points="950.38,-39.88 958.93,-33.62 948.34,-33.18 950.38,-39.88"/>
</g>
<!-- [root] output.cluster&#45;name (expand) -->
<g id="node25" class="node">
<title>[root] output.cluster&#45;name (expand)</title>
<ellipse fill="none" stroke="black" cx="400.96" cy="-522" rx="172.77" ry="18"/>
<text text-anchor="middle" x="400.96" y="-518.3" font-family="Times-Roman" font-size="14.00">[root] output.cluster&#45;name (expand)</text>
</g>
<!-- [root] output.cluster&#45;name (expand)&#45;&gt;[root] aws_eks_cluster.cluster (expand) -->
<g id="edge30" class="edge">
<title>[root] output.cluster&#45;name (expand)&#45;&gt;[root] aws_eks_cluster.cluster (expand)</title>
<path fill="none" stroke="black" d="M367.55,-504.29C316.02,-478.53 217.17,-429.1 160.23,-400.64"/>
<polygon fill="black" stroke="black" points="161.64,-397.43 151.13,-396.08 158.51,-403.69 161.64,-397.43"/>
</g>
<!-- [root] provider[&quot;registry.terraform.io/hashicorp/aws&quot;] (close) -->
<g id="node26" class="node">
<title>[root] provider[&quot;registry.terraform.io/hashicorp/aws&quot;] (close)</title>
<ellipse fill="none" stroke="black" cx="887.96" cy="-522" rx="280.55" ry="18"/>
<text text-anchor="middle" x="887.96" y="-518.3" font-family="Times-Roman" font-size="14.00">[root] provider[&quot;registry.terraform.io/hashicorp/aws&quot;] (close)</text>
</g>
<!-- [root] provider[&quot;registry.terraform.io/hashicorp/aws&quot;] (close)&#45;&gt;[root] aws_eks_node_group.workers (expand) -->
<g id="edge31" class="edge">
<title>[root] provider[&quot;registry.terraform.io/hashicorp/aws&quot;] (close)&#45;&gt;[root] aws_eks_node_group.workers (expand)</title>
<path fill="none" stroke="black" d="M829.35,-504.32C794,-494.26 748.76,-481.39 711.59,-470.81"/>
<polygon fill="black" stroke="black" points="712.41,-467.41 701.83,-468.04 710.49,-474.14 712.41,-467.41"/>
</g>
<!-- [root] provider[&quot;registry.terraform.io/hashicorp/aws&quot;] (close)&#45;&gt;[root] aws_route_table_association.asociacion&#45;ruta (expand) -->
<g id="edge32" class="edge">
<title>[root] provider[&quot;registry.terraform.io/hashicorp/aws&quot;] (close)&#45;&gt;[root] aws_route_table_association.asociacion&#45;ruta (expand)</title>
<path fill="none" stroke="black" d="M900.31,-503.93C920.81,-473.29 957.08,-407.72 929.96,-360 922.6,-347.04 910.67,-336.92 897.92,-329.16"/>
<polygon fill="black" stroke="black" points="899.43,-325.99 888.99,-324.15 896,-332.1 899.43,-325.99"/>
</g>
<!-- [root] provider[&quot;registry.terraform.io/hashicorp/aws&quot;] (close)&#45;&gt;[root] aws_security_group.sg&#45;obli (expand) -->
<g id="edge33" class="edge">
<title>[root] provider[&quot;registry.terraform.io/hashicorp/aws&quot;] (close)&#45;&gt;[root] aws_security_group.sg&#45;obli (expand)</title>
<path fill="none" stroke="black" d="M939.46,-504.23C969.86,-494.34 1008.54,-481.74 1040.65,-471.29"/>
<polygon fill="black" stroke="black" points="1041.97,-474.54 1050.39,-468.12 1039.8,-467.88 1041.97,-474.54"/>
</g>
<!-- [root] root -->
<g id="node27" class="node">
<title>[root] root</title>
<ellipse fill="none" stroke="black" cx="636.96" cy="-594" rx="55.79" ry="18"/>
<text text-anchor="middle" x="636.96" y="-590.3" font-family="Times-Roman" font-size="14.00">[root] root</text>
</g>
<!-- [root] root&#45;&gt;[root] output.cluster&#45;name (expand) -->
<g id="edge34" class="edge">
<title>[root] root&#45;&gt;[root] output.cluster&#45;name (expand)</title>
<path fill="none" stroke="black" d="M597.2,-581.2C561.12,-570.5 507.29,-554.54 465.13,-542.03"/>
<polygon fill="black" stroke="black" points="466.09,-538.67 455.51,-539.18 464.1,-545.38 466.09,-538.67"/>
</g>
<!-- [root] root&#45;&gt;[root] provider[&quot;registry.terraform.io/hashicorp/aws&quot;] (close) -->
<g id="edge35" class="edge">
<title>[root] root&#45;&gt;[root] provider[&quot;registry.terraform.io/hashicorp/aws&quot;] (close)</title>
<path fill="none" stroke="black" d="M677.85,-581.6C715.9,-570.99 773.37,-554.96 818.59,-542.35"/>
<polygon fill="black" stroke="black" points="819.65,-545.69 828.34,-539.63 817.76,-538.94 819.65,-545.69"/>
</g>
</g>
</svg>
